<svg xmlns="http://www.w3.org/2000/svg" width="1552" height="305"><path fill="#096bce" fill-rule="evenodd" d="M1311.6 98.1s3.1-96.5 130.6-98c127.5-1.4 107.9 92.7 107.9 92.7h-82.8c3.7-21.1-33.9-51.4-62.3-19.3-20.2 37.8 33 44.2 33 44.2 68.9 11.9 85.8 52.2 81.9 86.4-3.7 31.6-50 100.7-153.2 100.2h-.2c-1.6 0-3.2-.1-4.8-.1-106.5-2.8-95.5-103-95.5-103h84.6c0 28.5 10.9 35.9 10.9 35.9 20.6 15.7 54.5 4.7 66.2-12 9.5-14-2.5-28.4-13.8-33.1-11.2-4.6-62.6-22.1-62.6-22.1-41-14-39.9-71.8-39.9-71.8M243.1 183.6c2.7-17.1 8.3-35.4 16.6-54.4 10.9-25.6 25-47.8 42.2-66.5s37.5-33.4 60.9-44.3q35.1-16.2 76.6-16c37 .2 65.2 11.6 84.6 34.1 19.4 22.6 26.1 52.2 20.3 89.2-4.9 30.8-16.9 60.5-36.3 89.1-19.4 28.7-43 50.7-71 66.1-27.9 15.5-58 23-90.2 22.7-27.8-.1-50.4-6.3-67.5-18.8-17-12.5-27.9-27.8-33-46.1-5-18.2-6-36.6-3.2-55.1m88.6-8.6c-2.3 15.6.3 28.5 7.7 39.1 7.4 10.4 18.3 15.7 32.8 15.9q17.5 0 35.8-12.3c12-8.1 22.8-20.6 32.3-37.3 9.7-16.8 15.5-33 17.7-48.9 2.7-17.6.2-31.6-7.5-41.8-7.6-10.1-18.3-15.2-32.2-15.3-21.5-.1-40.3 10.2-56.8 31.3-16.4 21-26.4 44.1-29.8 69.3M1068.2 8.1l-28.8 75.1h-77.8l-77.8 217.5h-91.5l79.4-217.5h-81.6l25.1-75.1zm-341.3 0-75.4 217h121.1l-25.9 75.6H530.3L633.9 8.1zm413.3 292 7.4-192-131.9 192h-88.4L1143.6 7.5h84.1l-.7 292.6zM106.7 8.1l-10.6 168L198.2 8h88.4l-186 292.7H0L19.9 8.1z"/></svg>